name GIL01_static.mot
datacolumns 141
datarows 4
range 0.60000002 0.62500000
endheader

                time	           pelvis_tx	           pelvis_ty	           pelvis_tz	         pelvis_tilt	         pelvis_list	     pelvis_rotation	       hip_flexion_r	     hip_adduction_r	      hip_rotation_r	        knee_angle_r	       ankle_angle_r	    subtalar_angle_r	         mtp_angle_r	       hip_flexion_l	     hip_adduction_l	      hip_rotation_l	        knee_angle_l	       ankle_angle_l	    subtalar_angle_l	         mtp_angle_l	    lumbar_extension	      lumbar_bending	     lumbar_rotation	    ground_marker_px	    ground_marker_py	    ground_marker_pz	    ground_marker_px	    ground_marker_py	    ground_marker_pz	    ground_marker_px	    ground_marker_py	    ground_marker_pz	    ground_marker_px	    ground_marker_py	    ground_marker_pz	    ground_marker_px	    ground_marker_py	    ground_marker_pz	    ground_marker_px	    ground_marker_py	    ground_marker_pz	    ground_marker_px	    ground_marker_py	    ground_marker_pz	    ground_marker_px	    ground_marker_py	    ground_marker_pz	    ground_marker_px	    ground_marker_py	    ground_marker_pz	    ground_marker_px	    ground_marker_py	    ground_marker_pz	    ground_marker_px	    ground_marker_py	    ground_marker_pz	    ground_marker_px	    ground_marker_py	    ground_marker_pz	    ground_marker_px	    ground_marker_py	    ground_marker_pz	    ground_marker_px	    ground_marker_py	    ground_marker_pz	    ground_marker_px	    ground_marker_py	    ground_marker_pz	    ground_marker_px	    ground_marker_py	    ground_marker_pz	    ground_marker_px	    ground_marker_py	    ground_marker_pz	    ground_marker_px	    ground_marker_py	    ground_marker_pz	    ground_marker_px	    ground_marker_py	    ground_marker_pz	    ground_marker_px	    ground_marker_py	    ground_marker_pz	    ground_marker_px	    ground_marker_py	    ground_marker_pz	    ground_marker_px	    ground_marker_py	    ground_marker_pz	    ground_marker_px	    ground_marker_py	    ground_marker_pz	    ground_marker_px	    ground_marker_py	    ground_marker_pz	    ground_marker_px	    ground_marker_py	    ground_marker_pz	    ground_marker_px	    ground_marker_py	    ground_marker_pz	    ground_marker_px	    ground_marker_py	    ground_marker_pz	    ground_marker_px	    ground_marker_py	    ground_marker_pz	    ground_marker_px	    ground_marker_py	    ground_marker_pz	    ground_marker_px	    ground_marker_py	    ground_marker_pz	    ground_marker_px	    ground_marker_py	    ground_marker_pz	    ground_marker_px	    ground_marker_py	    ground_marker_pz	    ground_marker_px	    ground_marker_py	    ground_marker_pz	    ground_marker_px	    ground_marker_py	    ground_marker_pz	    ground_marker_px	    ground_marker_py	    ground_marker_pz	    ground_marker_px	    ground_marker_py	    ground_marker_pz	    ground_marker_px	    ground_marker_py	    ground_marker_pz	    ground_marker_px	    ground_marker_py	    ground_marker_pz	    ground_marker_px	    ground_marker_py	    ground_marker_pz	
          0.60000002	          0.60984695	          0.80964136	         -0.25585443	         -4.07666206	          0.51071024	         -7.43264627	         -3.45894814	         -6.68885851	          1.65160477	         13.83251476	         -7.61821508	          0.00000000	          0.00000000	         -7.53372431	         -4.50622749	         -9.98280239	         12.83509636	         -3.20139813	          0.00000000	          0.00000000	          3.54058671	          5.27635670	          4.16925097	          0.53745347	          0.74333370	         -0.26328075	          0.52919477	          0.74511445	         -0.19867305	          0.54571217	          0.74155289	         -0.32788846	          0.47871649	          0.40642512	         -0.15524311	          0.48362640	          0.42400181	         -0.35278597	          0.51198912	          0.06691097	         -0.11898943	          0.49457687	          0.07030525	         -0.39089015	          0.60984695	          0.80964136	         -0.25585443	          0.59656137	          0.81250602	         -0.15192200	          0.62313247	          0.80677676	         -0.35978687	          0.45148748	          0.85591418	         -0.24371979	          0.45482269	          0.85396892	         -0.29871631	          0.47420165	          0.41405833	         -0.10096283	          0.48208472	          0.42855960	         -0.40707314	          0.48558232	          0.40729669	         -0.20792311	          0.48768833	          0.40039754	         -0.30559549	          0.49960649	          0.06946728	         -0.08368526	          0.48422766	          0.07379330	         -0.42624161	          0.51533693	          0.06602369	         -0.14168909	          0.49777523	          0.06649053	         -0.37241700	          0.47756937	          0.03730667	         -0.14373662	          0.43723443	          0.04125580	         -0.38097483	          0.55003387	          1.17267561	         -0.27386376	          0.58693171	          1.09389722	         -0.27457601	          0.45704734	          1.21904898	         -0.28825402	          0.56196147	          1.17270005	         -0.23413447	          0.56602949	          1.17755210	         -0.30896056	          0.60705996	          0.03674842	         -0.08482595	          0.59584510	          0.03897144	         -0.42060465	          0.58903253	          0.52905029	         -0.05596049	          0.65755326	          0.52679229	         -0.35605568	          0.52425551	          0.58866465	         -0.09727305	          0.59723681	          0.59774250	         -0.38215688	          0.51390404	          0.50148153	         -0.10590352	          0.57217735	          0.51344556	         -0.38518292	          0.46577257	          0.18531170	         -0.02099408	          0.48989293	          0.20546256	         -0.48778462	          0.48028201	          0.14458741	         -0.09142096	          0.47819024	          0.15832078	         -0.41917768	
          0.60833335	          0.60986489	          0.80962873	         -0.25586635	         -4.08928871	          0.50326586	         -7.43030787	         -3.44750690	         -6.67915058	          1.64841402	         13.83102703	         -7.61748409	          0.00000000	          0.00000000	         -7.52117777	         -4.51303005	         -9.99094772	         12.83699989	         -3.20290041	          0.00000000	          0.00000000	          3.36836839	          5.12161684	          4.91951370	          0.53745627	          0.74333608	         -0.26327968	          0.52920282	          0.74512601	         -0.19867156	          0.54570973	          0.74154621	         -0.32788780	          0.47872853	          0.40644565	         -0.15524937	          0.48362961	          0.42400962	         -0.35277224	          0.51199424	          0.06692615	         -0.11898749	          0.49459270	          0.07030944	         -0.39088482	          0.60986489	          0.80962873	         -0.25586635	          0.59658968	          0.81250769	         -0.15194777	          0.62314010	          0.80674976	         -0.35978490	          0.45150208	          0.85594487	         -0.24371442	          0.45483217	          0.85398674	         -0.29872084	          0.47421390	          0.41407779	         -0.10096892	          0.48207715	          0.42856744	         -0.40705913	          0.48575681	          0.40732434	         -0.20795448	          0.48772010	          0.40039301	         -0.30561888	          0.49961129	          0.06948349	         -0.08368348	          0.48423681	          0.07379750	         -0.42623436	          0.51538068	          0.06606564	         -0.14168322	          0.49778637	          0.06652059	         -0.37241477	          0.47758994	          0.03730001	         -0.14372790	          0.43722522	          0.04127581	         -0.38098052	          0.54951447	          1.17264760	         -0.27369392	          0.58618701	          1.09376705	         -0.27469119	          0.45706058	          1.21910286	         -0.28824544	          0.56196177	          1.17273939	         -0.23415717	          0.56506169	          1.17739177	         -0.30897564	          0.60706133	          0.03675396	         -0.08482987	          0.59585494	          0.03895877	         -0.42059082	          0.58904487	          0.52905893	         -0.05596402	          0.65755349	          0.52677196	         -0.35606089	          0.52422929	          0.58871651	         -0.09726124	          0.59721959	          0.59778321	         -0.38216698	          0.51396644	          0.50151002	         -0.10591234	          0.57217753	          0.51345682	         -0.38519830	          0.46578097	          0.18532604	         -0.02099941	          0.48988906	          0.20546700	         -0.48778123	          0.48028666	          0.14460644	         -0.09146889	          0.47820196	          0.15835539	         -0.41918275	
          0.61666667	          0.60988331	          0.80962169	         -0.25587726	         -4.09886551	          0.49760461	         -7.42826891	         -3.43929005	         -6.67190218	          1.64598262	         13.82989502	         -7.61696148	          0.00000000	          0.00000000	         -7.51250124	         -4.51817894	         -9.99420261	         12.83870697	         -3.20372963	          0.00000000	          0.00000000	          3.51436281	          5.18567324	          4.24047470	          0.53746319	          0.74334055	         -0.26328051	          0.52921402	          0.74513733	         -0.19867203	          0.54571235	          0.74154377	         -0.32788897	          0.47874033	          0.40646493	         -0.15525562	          0.48363289	          0.42402467	         -0.35276371	          0.51199740	          0.06694499	         -0.11898439	          0.49460241	          0.07031846	         -0.39088169	          0.60988331	          0.80962169	         -0.25587726	          0.59661657	          0.81251138	         -0.15197040	          0.62315011	          0.80673200	         -0.35978413	          0.45152396	          0.85597175	         -0.24371043	          0.45484367	          0.85400033	         -0.29872432	          0.47422612	          0.41409630	         -0.10097500	          0.48207480	          0.42858216	         -0.40705043	          0.48591569	          0.40731093	         -0.20795888	          0.48769590	          0.40042195	         -0.30565625	          0.49961439	          0.06950357	         -0.08368050	          0.48424292	          0.07380658	         -0.42623016	          0.51538944	          0.06609933	         -0.14167863	          0.49779853	          0.06655113	         -0.37241849	          0.47760940	          0.03729596	         -0.14372012	          0.43721583	          0.04129563	         -0.38098261	          0.54998136	          1.17271829	         -0.27381125	          0.58680248	          1.09390330	         -0.27443844	          0.45708990	          1.21913552	         -0.28823665	          0.56196499	          1.17280138	         -0.23412786	          0.56593215	          1.17751718	         -0.30890876	          0.60705376	          0.03676435	         -0.08482798	          0.59585744	          0.03895367	         -0.42058513	          0.58905709	          0.52907044	         -0.05596680	          0.65755850	          0.52675968	         -0.35606977	          0.52424693	          0.58875036	         -0.09725855	          0.59721076	          0.59781659	         -0.38216406	          0.51403725	          0.50149721	         -0.10591401	          0.57216090	          0.51349825	         -0.38521388	          0.46578538	          0.18534118	         -0.02100386	          0.48988420	          0.20547557	         -0.48777822	          0.48027453	          0.14464590	         -0.09147798	          0.47819248	          0.15840329	         -0.41918346	
          0.62500000	          0.60990155	          0.80961400	         -0.25588831	         -4.10641861	          0.49365446	         -7.42590046	         -3.43238354	         -6.66643667	          1.64235699	         13.82772827	         -7.61617994	          0.00000000	          0.00000000	         -7.50535107	         -4.52180624	         -9.99103642	         12.83902454	         -3.20394087	          0.00000000	          0.00000000	          3.64219117	          5.25686264	          3.66880250	          0.53747225	          0.74334198	         -0.26328364	          0.52922714	          0.74514335	         -0.19867478	          0.54571742	          0.74154061	         -0.32789251	          0.47875664	          0.40647584	         -0.15526466	          0.48364010	          0.42403784	         -0.35275996	          0.51200181	          0.06695839	         -0.11898474	          0.49461052	          0.07032120	         -0.39088139	          0.60990155	          0.80961400	         -0.25588831	          0.59664243	          0.81251085	         -0.15199007	          0.62316060	          0.80671716	         -0.35978654	          0.45155197	          0.85598940	         -0.24370655	          0.45485649	          0.85400832	         -0.29872492	          0.47424164	          0.41410634	         -0.10098399	          0.48208231	          0.42859429	         -0.40704682	          0.48585579	          0.40727511	         -0.20790707	          0.48796213	          0.40031123	         -0.30549866	          0.49961805	          0.06951822	         -0.08368120	          0.48425081	          0.07380954	         -0.42622977	          0.51537430	          0.06610116	         -0.14167771	          0.49779987	          0.06655821	         -0.37241790	          0.47762835	          0.03728839	         -0.14371467	          0.43720743	          0.04130966	         -0.38098243	          0.55036694	          1.17275894	         -0.27386779	          0.58731949	          1.09400380	         -0.27420837	          0.45713100	          1.21912444	         -0.28824821	          0.56195903	          1.17282212	         -0.23406269	          0.56665474	          1.17761803	         -0.30880770	          0.60704052	          0.03677399	         -0.08482168	          0.59585637	          0.03895014	         -0.42058793	          0.58907545	          0.52907562	         -0.05597283	          0.65756887	          0.52674776	         -0.35608360	          0.52430511	          0.58873552	         -0.09726248	          0.59705603	          0.59785306	         -0.38220134	          0.51404387	          0.50146347	         -0.10589412	          0.57216710	          0.51350391	         -0.38518140	          0.46578792	          0.18535107	         -0.02100939	          0.48988232	          0.20548093	         -0.48777628	          0.48025557	          0.14467333	         -0.09145124	          0.47819924	          0.15841949	         -0.41917127	
